<svg xmlns="http://www.w3.org/2000/svg" width="78.001" height="78" viewBox="0 0 78.001 78">
    <defs>
        <style>
            .cls-1{fill:#101010}
        </style>
    </defs>
    <g id="cookie" transform="translate(.001 -.002)">
        <g id="Group_229" data-name="Group 229" transform="translate(15.876 20.762)">
            <g id="Group_228" data-name="Group 228">
                <path id="Path_2632" d="M110.24 136.275a6.027 6.027 0 1 0 6.028 6.027 6.034 6.034 0 0 0-6.028-6.027zm0 9.77a3.742 3.742 0 1 1 3.742-3.742 3.746 3.746 0 0 1-3.742 3.742z" class="cls-1" data-name="Path 2632" transform="translate(-104.213 -136.275)"/>
            </g>
        </g>
        <g id="Group_231" data-name="Group 231" transform="translate(41.521 48.85)">
            <g id="Group_230" data-name="Group 230">
                <path id="Path_2633" d="M278.576 320.646a6.027 6.027 0 1 0 6.027 6.027 6.034 6.034 0 0 0-6.027-6.027zm0 9.769a3.742 3.742 0 1 1 3.742-3.742 3.747 3.747 0 0 1-3.742 3.742z" class="cls-1" data-name="Path 2633" transform="translate(-272.549 -320.646)"/>
            </g>
        </g>
        <g id="Group_233" data-name="Group 233" transform="translate(19.539 46.408)">
            <g id="Group_232" data-name="Group 232">
                <path id="Path_2634" d="M133.066 304.613a4.806 4.806 0 1 0 4.806 4.806 4.812 4.812 0 0 0-4.806-4.806zm0 7.327a2.521 2.521 0 1 1 2.521-2.521 2.524 2.524 0 0 1-2.521 2.522z" class="cls-1" data-name="Path 2634" transform="translate(-128.26 -304.613)"/>
            </g>
        </g>
        <g id="Group_235" data-name="Group 235" transform="translate(34.194 29.311)">
            <g id="Group_234" data-name="Group 234">
                <path id="Path_2635" d="M228.039 192.388a3.585 3.585 0 1 0 3.585 3.585 3.589 3.589 0 0 0-3.585-3.585zm0 4.885a1.3 1.3 0 1 1 1.3-1.3 1.3 1.3 0 0 1-1.3 1.3z" class="cls-1" data-name="Path 2635" transform="translate(-224.454 -192.388)"/>
            </g>
        </g>
        <g id="Group_237" data-name="Group 237" transform="translate(58.618 46.407)">
            <g id="Group_236" data-name="Group 236">
                <path id="Path_2636" d="M388.159 307.684l-1.221-2.443a1.143 1.143 0 0 0-2.044 1.022l1.221 2.443a1.143 1.143 0 1 0 2.044-1.022z" class="cls-1" data-name="Path 2636" transform="translate(-384.773 -304.61)"/>
            </g>
        </g>
        <g id="Group_239" data-name="Group 239" transform="translate(46.406 40.302)">
            <g id="Group_238" data-name="Group 238">
                <path id="Path_2637" d="M309.219 265.163a1.142 1.142 0 0 0-1.533-.511l-2.442 1.221a1.143 1.143 0 1 0 1.022 2.044l2.442-1.221a1.142 1.142 0 0 0 .511-1.533z" class="cls-1" data-name="Path 2637" transform="translate(-304.612 -264.531)"/>
            </g>
        </g>
        <g id="Group_241" data-name="Group 241" transform="translate(12.212 36.638)">
            <g id="Group_240" data-name="Group 240">
                <path id="Path_2638" d="M83.548 243.556l-1.221-2.442a1.143 1.143 0 0 0-2.044 1.022l1.221 2.442a1.143 1.143 0 1 0 2.044-1.022z" class="cls-1" data-name="Path 2638" transform="translate(-80.162 -240.482)"/>
            </g>
        </g>
        <g id="Group_243" data-name="Group 243" transform="translate(29.309 59.841)">
            <g id="Group_242" data-name="Group 242">
                <path id="Path_2639" d="M197 393.419a1.142 1.142 0 0 0-1.533-.511l-2.442 1.221a1.143 1.143 0 1 0 1.022 2.044l2.442-1.221a1.142 1.142 0 0 0 .511-1.533z" class="cls-1" data-name="Path 2639" transform="translate(-192.388 -392.787)"/>
            </g>
        </g>
        <g id="Group_245" data-name="Group 245" transform="translate(30.53 12.214)">
            <g id="Group_244" data-name="Group 244">
                <path id="Path_2640" d="M203.578 81.718l-1.221-1.218a1.143 1.143 0 1 0-1.616 1.616l1.221 1.221a1.142 1.142 0 1 0 1.616-1.616z" class="cls-1" data-name="Path 2640" transform="translate(-200.406 -80.162)"/>
            </g>
        </g>
        <g id="Group_247" data-name="Group 247" transform="translate(28.088 40.302)">
            <g id="Group_246" data-name="Group 246">
                <path id="Path_2641" d="M187.545 266.088l-1.221-1.221a1.143 1.143 0 0 0-1.616 1.616l1.221 1.221a1.142 1.142 0 0 0 1.616-1.616z" class="cls-1" data-name="Path 2641" transform="translate(-184.373 -264.532)"/>
            </g>
        </g>
        <g id="Group_249" data-name="Group 249" transform="translate(42.742 65.947)">
            <g id="Group_248" data-name="Group 248">
                <path id="Path_2642" d="M281.709 432.87a1.143 1.143 0 0 0-1.143 1.143v1.221a1.143 1.143 0 0 0 2.285 0v-1.221a1.143 1.143 0 0 0-1.142-1.143z" class="cls-1" data-name="Path 2642" transform="translate(-280.566 -432.87)"/>
            </g>
        </g>
        <g id="Group_251" data-name="Group 251" transform="translate(35.415 19.541)">
            <g id="Group_250" data-name="Group 250">
                <path id="Path_2643" d="M235.642 128.595a1.142 1.142 0 0 0-1.616 0l-1.221 1.221a1.143 1.143 0 1 0 1.616 1.616l1.221-1.221a1.143 1.143 0 0 0 0-1.616z" class="cls-1" data-name="Path 2643" transform="translate(-232.47 -128.26)"/>
            </g>
        </g>
        <g id="Group_253" data-name="Group 253" transform="translate(53.183 5.676)">
            <g id="Group_252" data-name="Group 252">
                <path id="Path_2644" d="M361.431 38.584a4.753 4.753 0 0 0-4.7-1.127l-3.857 1.157a4.837 4.837 0 0 0-3.36 3.813l-.35 2.1a4.816 4.816 0 0 0 3.053 5.29l3.1 1.163a4.806 4.806 0 0 0 6.35-3.335l1.106-4.423a4.754 4.754 0 0 0-1.342-4.638zm-.873 4.088l-1.105 4.423a2.521 2.521 0 0 1-3.331 1.749l-3.1-1.163a2.526 2.526 0 0 1-1.6-2.775l.35-2.1a2.537 2.537 0 0 1 1.762-2l3.857-1.157a2.559 2.559 0 0 1 .736-.109 2.525 2.525 0 0 1 2.434 3.135z" class="cls-1" data-name="Path 2644" transform="translate(-349.099 -37.249)"/>
            </g>
        </g>
        <g id="Group_255" data-name="Group 255" transform="translate(63.12 22.944)">
            <g id="Group_254" data-name="Group 254">
                <path id="Path_2645" d="M424.569 154.981a3.552 3.552 0 0 0-1.41-2.452l-1.62-1.215a3.565 3.565 0 0 0-3.754-.339l-1.475.737a3.589 3.589 0 0 0-1.692 4.619l1.182 2.769a3.561 3.561 0 0 0 2.777 2.135 3.662 3.662 0 0 0 .528.038 3.558 3.558 0 0 0 2.744-1.291l1.909-2.291a3.553 3.553 0 0 0 .811-2.71zm-2.562 1.248l-1.907 2.291a1.3 1.3 0 0 1-2.193-.32l-1.187-2.769a1.3 1.3 0 0 1 .614-1.675l1.475-.737a1.292 1.292 0 0 1 1.361.123l1.62 1.215a1.3 1.3 0 0 1 .219 1.872z" class="cls-1" data-name="Path 2645" transform="translate(-414.328 -150.593)"/>
            </g>
        </g>
        <g id="Group_257" data-name="Group 257" transform="translate(70.83 13.435)">
            <g id="Group_256" data-name="Group 256">
                <path id="Path_2646" d="M468.521 88.18a3.585 3.585 0 1 0 3.585 3.585 3.589 3.589 0 0 0-3.585-3.585zm0 4.885a1.3 1.3 0 1 1 1.3-1.3 1.3 1.3 0 0 1-1.3 1.3z" class="cls-1" data-name="Path 2646" transform="translate(-464.936 -88.18)"/>
            </g>
        </g>
        <g id="Group_259" data-name="Group 259" transform="translate(12.895 .002)">
            <g id="Group_258" data-name="Group 258">
                <path id="Path_2647" d="M148.6 43.321a2.434 2.434 0 0 0-2.083-.692 10.877 10.877 0 0 1-1.573.115 11.031 11.031 0 0 1-10.534-7.68 3.551 3.551 0 0 0-2.7-2.425A18.383 18.383 0 0 1 119.862 4.39a2.367 2.367 0 0 0-1.516-3.644 39.294 39.294 0 0 0-11.854-.515 38.561 38.561 0 0 0-21.46 9.5 1.143 1.143 0 1 0 1.511 1.714A36.285 36.285 0 0 1 106.737 2.5a37.013 37.013 0 0 1 11.166.484.087.087 0 0 1 .071.052.08.08 0 0 1-.012.082 20.668 20.668 0 0 0 13.324 31.762 1.268 1.268 0 0 1 .949.879 13.309 13.309 0 0 0 12.71 9.266 13.162 13.162 0 0 0 1.9-.14.117.117 0 0 1 .129.05 36.58 36.58 0 0 1-8.654 18.286 1.143 1.143 0 0 0 1.717 1.509 38.863 38.863 0 0 0 9.193-19.427 2.28 2.28 0 0 0-.63-1.982z" class="cls-1" data-name="Path 2647" transform="translate(-84.645 -.002)"/>
            </g>
        </g>
        <g id="Group_261" data-name="Group 261" transform="translate(-.001 12.899)">
            <g id="Group_260" data-name="Group 260">
                <path id="Path_2648" d="M64.837 138.44a1.143 1.143 0 0 0-1.613-.1 36.688 36.688 0 0 1-51.781-51.785 1.143 1.143 0 0 0-1.716-1.509 38.975 38.975 0 0 0 55.006 55.006 1.143 1.143 0 0 0 .104-1.612z" class="cls-1" data-name="Path 2648" transform="translate(.001 -84.658)"/>
            </g>
        </g>
    </g>
</svg>
